G75*
%MOIN*%
%OFA0B0*%
%FSLAX25Y25*%
%IPPOS*%
%LPD*%
%AMOC8*
5,1,8,0,0,1.08239X$1,22.5*
%
%ADD10OC8,0.10800*%
%ADD11R,0.05524X0.13398*%
%ADD12R,0.13398X0.05524*%
%ADD13OC8,0.08300*%
%ADD14C,0.15700*%
%ADD15R,0.09068X0.09068*%
%ADD16OC8,0.06343*%
%ADD17C,0.12650*%
%ADD18C,0.06000*%
%ADD19OC8,0.07400*%
%ADD20C,0.06737*%
%ADD21C,0.06800*%
%ADD22C,0.08400*%
%ADD23OC8,0.06000*%
%ADD24C,0.11300*%
%ADD25C,0.12020*%
%ADD26C,0.26200*%
%ADD27OC8,0.06115*%
%ADD28OC8,0.04762*%
%ADD29R,0.04762X0.04762*%
D10*
X0171928Y0287784D03*
X0195550Y0279910D03*
X0219172Y0287784D03*
X0239428Y0287784D03*
X0263050Y0279910D03*
X0286672Y0287784D03*
X0286672Y0335816D03*
X0263050Y0372410D03*
X0286672Y0380284D03*
X0286672Y0428316D03*
X0239428Y0428316D03*
X0219172Y0428316D03*
X0234172Y0472784D03*
X0234172Y0520816D03*
X0210550Y0528690D03*
X0186928Y0520816D03*
X0186928Y0472784D03*
X0171928Y0428316D03*
X0171928Y0380284D03*
X0195550Y0372410D03*
X0219172Y0380284D03*
X0239428Y0380284D03*
X0239428Y0335816D03*
X0219172Y0335816D03*
X0171928Y0335816D03*
D11*
X0247676Y0242686D03*
X0263424Y0242686D03*
X0263424Y0215914D03*
X0247676Y0215914D03*
D12*
X0208936Y0213926D03*
X0208936Y0229674D03*
X0182164Y0229674D03*
X0182164Y0213926D03*
D13*
X0133750Y0446800D03*
X0147350Y0476800D03*
X0117350Y0476800D03*
X0103750Y0446800D03*
X0087350Y0476800D03*
X0073750Y0446800D03*
X0057350Y0476800D03*
X0043750Y0446800D03*
X0058750Y0515550D03*
X0072350Y0545550D03*
X0088750Y0515550D03*
X0102350Y0545550D03*
X0348050Y0536100D03*
X0348050Y0506100D03*
X0348050Y0476100D03*
X0348050Y0446100D03*
X0378050Y0432500D03*
X0378050Y0462500D03*
X0378050Y0492500D03*
X0378050Y0522500D03*
X0421100Y0198050D03*
X0407500Y0168050D03*
D14*
X0414300Y0183050D03*
X0363050Y0439300D03*
X0363050Y0469300D03*
X0363050Y0499300D03*
X0363050Y0529300D03*
X0140550Y0461800D03*
X0110550Y0461800D03*
X0080550Y0461800D03*
X0050550Y0461800D03*
X0065550Y0530550D03*
X0095550Y0530550D03*
D15*
X0095550Y0577223D03*
X0095550Y0598877D03*
X0324723Y0352568D03*
X0324723Y0336032D03*
X0346377Y0336032D03*
X0346377Y0352568D03*
X0377223Y0352174D03*
X0377223Y0335639D03*
X0377223Y0319103D03*
X0377223Y0302568D03*
X0377223Y0286032D03*
X0377223Y0269497D03*
X0377223Y0252961D03*
X0377223Y0236426D03*
X0398877Y0236426D03*
X0398877Y0252961D03*
X0398877Y0269497D03*
X0398877Y0286032D03*
X0398877Y0302568D03*
X0398877Y0319103D03*
X0398877Y0335639D03*
X0398877Y0352174D03*
X0346377Y0268335D03*
X0346377Y0251800D03*
X0346377Y0235265D03*
X0324723Y0235265D03*
X0324723Y0251800D03*
X0324723Y0268335D03*
D16*
X0157050Y0269300D03*
X0157050Y0259300D03*
X0157050Y0249300D03*
X0157050Y0239300D03*
X0157050Y0229300D03*
X0157050Y0219300D03*
X0157050Y0209300D03*
X0157050Y0199300D03*
X0147050Y0199300D03*
X0147050Y0209300D03*
X0147050Y0219300D03*
X0147050Y0229300D03*
X0147050Y0239300D03*
X0147050Y0249300D03*
X0147050Y0259300D03*
X0147050Y0269300D03*
X0147050Y0279300D03*
X0147050Y0289300D03*
X0147050Y0299300D03*
X0147050Y0309300D03*
X0147050Y0319300D03*
X0147050Y0329300D03*
X0147050Y0339300D03*
X0147050Y0349300D03*
X0157050Y0349300D03*
X0157050Y0339300D03*
X0157050Y0329300D03*
X0157050Y0319300D03*
X0157050Y0309300D03*
X0157050Y0299300D03*
X0157050Y0289300D03*
X0157050Y0279300D03*
X0157050Y0179300D03*
X0157050Y0169300D03*
X0157050Y0159300D03*
X0157050Y0149300D03*
X0147050Y0149300D03*
X0147050Y0159300D03*
X0147050Y0169300D03*
X0147050Y0179300D03*
X0078152Y0339300D03*
X0078152Y0349300D03*
X0068152Y0349300D03*
X0068152Y0339300D03*
X0058152Y0339300D03*
X0058152Y0349300D03*
X0048152Y0349300D03*
X0048152Y0339300D03*
X0038152Y0339300D03*
X0038152Y0329300D03*
X0028152Y0329300D03*
X0028152Y0339300D03*
X0028152Y0349300D03*
X0038152Y0349300D03*
X0038152Y0319300D03*
X0038152Y0309300D03*
X0028152Y0309300D03*
X0028152Y0319300D03*
X0028152Y0299300D03*
X0028152Y0289300D03*
X0028152Y0279300D03*
X0028152Y0269300D03*
X0028152Y0259300D03*
X0028152Y0249300D03*
X0028152Y0239300D03*
X0028152Y0229300D03*
X0028152Y0219300D03*
X0028152Y0209300D03*
X0028152Y0199300D03*
X0028152Y0189300D03*
X0038152Y0189300D03*
X0038152Y0199300D03*
X0038152Y0209300D03*
X0038152Y0219300D03*
X0038152Y0229300D03*
X0038152Y0239300D03*
X0038152Y0249300D03*
X0038152Y0259300D03*
X0038152Y0269300D03*
X0038152Y0279300D03*
X0038152Y0289300D03*
X0038152Y0299300D03*
D17*
X0339750Y0388375D02*
X0339750Y0400225D01*
X0355550Y0400225D02*
X0355550Y0388375D01*
X0371350Y0388375D02*
X0371350Y0400225D01*
D18*
X0140550Y0401700D02*
X0140550Y0406900D01*
X0130550Y0406900D02*
X0130550Y0401700D01*
X0120550Y0401700D02*
X0120550Y0406900D01*
X0110550Y0406900D02*
X0110550Y0401700D01*
X0100550Y0401700D02*
X0100550Y0406900D01*
X0090550Y0406900D02*
X0090550Y0401700D01*
X0080550Y0401700D02*
X0080550Y0406900D01*
X0070550Y0406900D02*
X0070550Y0401700D01*
X0070550Y0376900D02*
X0070550Y0371700D01*
X0080550Y0371700D02*
X0080550Y0376900D01*
X0090550Y0376900D02*
X0090550Y0371700D01*
X0100550Y0371700D02*
X0100550Y0376900D01*
X0110550Y0376900D02*
X0110550Y0371700D01*
X0120550Y0371700D02*
X0120550Y0376900D01*
X0130550Y0376900D02*
X0130550Y0371700D01*
X0140550Y0371700D02*
X0140550Y0376900D01*
D19*
X0134800Y0305550D03*
X0134800Y0294300D03*
X0098800Y0294300D03*
X0098800Y0305550D03*
X0177550Y0241800D03*
X0213550Y0241800D03*
X0228550Y0164300D03*
X0192550Y0164300D03*
X0300550Y0213800D03*
X0300550Y0249800D03*
X0428050Y0478800D03*
X0428050Y0514800D03*
X0163550Y0538050D03*
X0127550Y0538050D03*
D20*
X0128050Y0557581D02*
X0128050Y0563519D01*
X0138050Y0563519D02*
X0138050Y0557581D01*
X0148050Y0557581D02*
X0148050Y0563519D01*
X0158050Y0563519D02*
X0158050Y0557581D01*
X0327581Y0186800D02*
X0333519Y0186800D01*
X0333519Y0176800D02*
X0327581Y0176800D01*
X0327581Y0166800D02*
X0333519Y0166800D01*
X0333519Y0156800D02*
X0327581Y0156800D01*
X0366331Y0156800D02*
X0372269Y0156800D01*
X0372269Y0166800D02*
X0366331Y0166800D01*
X0366331Y0176800D02*
X0372269Y0176800D01*
X0372269Y0186800D02*
X0366331Y0186800D01*
D21*
X0308050Y0127300D02*
X0308050Y0121300D01*
X0298050Y0121300D02*
X0298050Y0127300D01*
X0288050Y0127300D02*
X0288050Y0121300D01*
X0230550Y0121300D02*
X0230550Y0127300D01*
X0220550Y0127300D02*
X0220550Y0121300D01*
X0210550Y0121300D02*
X0210550Y0127300D01*
X0210550Y0181300D02*
X0210550Y0187300D01*
X0200550Y0187300D02*
X0200550Y0181300D01*
X0220550Y0181300D02*
X0220550Y0187300D01*
X0280050Y0219300D02*
X0286050Y0219300D01*
X0286050Y0229300D02*
X0280050Y0229300D01*
X0280050Y0239300D02*
X0286050Y0239300D01*
X0410050Y0485550D02*
X0416050Y0485550D01*
X0416050Y0495550D02*
X0410050Y0495550D01*
X0410050Y0505550D02*
X0416050Y0505550D01*
X0155550Y0520050D02*
X0155550Y0526050D01*
X0145550Y0526050D02*
X0145550Y0520050D01*
X0135550Y0520050D02*
X0135550Y0526050D01*
D22*
X0175550Y0254300D03*
X0215550Y0254300D03*
X0233050Y0254300D03*
X0233050Y0214300D03*
D23*
X0250550Y0134300D03*
X0250550Y0114300D03*
X0288050Y0140550D03*
X0308050Y0140550D03*
X0328050Y0134300D03*
X0328050Y0114300D03*
X0190550Y0114300D03*
X0190550Y0134300D03*
X0058050Y0379300D03*
X0058050Y0399300D03*
D24*
X0198936Y0561052D03*
X0206810Y0576800D03*
X0214684Y0561052D03*
X0222558Y0576800D03*
X0230432Y0561052D03*
X0238306Y0576800D03*
X0246180Y0561052D03*
X0254054Y0576800D03*
X0261928Y0561052D03*
X0269802Y0576800D03*
X0277676Y0561052D03*
X0285550Y0576800D03*
X0277676Y0592548D03*
X0293424Y0592548D03*
X0301298Y0576800D03*
X0293424Y0561052D03*
X0309172Y0561052D03*
X0317046Y0576800D03*
X0309172Y0592548D03*
X0324920Y0592548D03*
X0332794Y0576800D03*
X0324920Y0561052D03*
X0340668Y0561052D03*
X0348542Y0576800D03*
X0340668Y0592548D03*
X0356416Y0592548D03*
X0364290Y0576800D03*
X0356416Y0561052D03*
X0372164Y0561052D03*
X0372164Y0592548D03*
X0261928Y0592548D03*
X0246180Y0592548D03*
X0230432Y0592548D03*
X0214684Y0592548D03*
X0198936Y0592548D03*
D25*
X0173345Y0576800D03*
X0397755Y0576800D03*
D26*
X0033675Y0118675D03*
X0033675Y0604925D03*
X0418675Y0118675D03*
D27*
X0308050Y0309300D03*
X0291800Y0325550D03*
X0249300Y0296800D03*
X0208050Y0296800D03*
X0260550Y0433050D03*
X0268050Y0433050D03*
X0275550Y0433050D03*
X0275550Y0523050D03*
X0268050Y0523050D03*
X0259925Y0523050D03*
X0213050Y0541800D03*
X0199925Y0541800D03*
X0335550Y0344300D03*
X0397425Y0385550D03*
X0397425Y0393050D03*
X0397425Y0400550D03*
X0403675Y0396800D03*
X0403675Y0389300D03*
X0414300Y0468050D03*
X0418050Y0540550D03*
X0108050Y0143050D03*
D28*
X0091800Y0249300D03*
X0036175Y0374300D03*
X0058050Y0379300D03*
X0073050Y0388050D03*
X0085550Y0415550D03*
X0105550Y0416175D03*
X0130550Y0386800D03*
X0159925Y0394300D03*
X0164300Y0399300D03*
X0169925Y0404300D03*
X0174300Y0363050D03*
X0191800Y0363050D03*
X0206800Y0358050D03*
X0213050Y0363050D03*
X0229300Y0358050D03*
X0191800Y0295550D03*
X0181800Y0295550D03*
X0066800Y0495550D03*
X0080550Y0550550D03*
X0188050Y0591175D03*
X0225550Y0545550D03*
X0238050Y0554300D03*
D29*
X0308050Y0282425D03*
X0308050Y0229300D03*
X0220550Y0213050D03*
X0186800Y0201800D03*
X0110550Y0181800D03*
M02*
