%
M48
M72
T01C0.02362
T02C0.03200
T03C0.03543
T04C0.03937
T05C0.04000
T06C0.04400
T07C0.05000
T08C0.05118
T09C0.05512
T10C0.07000
T11C0.07900
T12C0.11220
T13C0.12598
T14C0.14900
%
T01
X110550Y181800
X91800Y249300
X36175Y374300
X58050Y379300
X73050Y388050
X85550Y415550
X105550Y416175
X130550Y386800
X159925Y394300
X164300Y399300
X169925Y404300
X174300Y363050
X191800Y363050
X206800Y358050
X213050Y363050
X229300Y358050
X191800Y295550
X181800Y295550
X220550Y213050
X186800Y201800
X308050Y229300
X308050Y282425
X225550Y545550
X238050Y554300
X188050Y591175
X80550Y550550
X66800Y495550
T02
X70550Y404300
X80550Y404300
X90550Y404300
X100550Y404300
X110550Y404300
X120550Y404300
X130550Y404300
X140550Y404300
X140550Y374300
X130550Y374300
X120550Y374300
X110550Y374300
X100550Y374300
X90550Y374300
X80550Y374300
X70550Y374300
X58050Y379300
X58050Y399300
X98800Y305550
X98800Y294300
X134800Y294300
X134800Y305550
X177550Y241800
X213550Y241800
X228550Y164300
X250550Y134300
X250550Y114300
X288050Y140550
X308050Y140550
X328050Y134300
X328050Y114300
X300550Y213800
X300550Y249800
X192550Y164300
X190550Y134300
X190550Y114300
X428050Y478800
X428050Y514800
X163550Y538050
X127550Y538050
T03
X199925Y541800
X213050Y541800
X259925Y523050
X268050Y523050
X275550Y523050
X275550Y433050
X268050Y433050
X260550Y433050
X291800Y325550
X308050Y309300
X335550Y344300
X397425Y385550
X397425Y393050
X397425Y400550
X403675Y396800
X403675Y389300
X414300Y468050
X418050Y540550
X249300Y296800
X208050Y296800
X157050Y299300
X157050Y289300
X157050Y279300
X157050Y269300
X157050Y259300
X157050Y249300
X157050Y239300
X157050Y229300
X157050Y219300
X157050Y209300
X157050Y199300
X147050Y199300
X147050Y209300
X147050Y219300
X147050Y229300
X147050Y239300
X147050Y249300
X147050Y259300
X147050Y269300
X147050Y279300
X147050Y289300
X147050Y299300
X147050Y309300
X147050Y319300
X147050Y329300
X147050Y339300
X147050Y349300
X157050Y349300
X157050Y339300
X157050Y329300
X157050Y319300
X157050Y309300
X78152Y339300
X78152Y349300
X68152Y349300
X68152Y339300
X58152Y339300
X58152Y349300
X48152Y349300
X48152Y339300
X38152Y339300
X38152Y329300
X28152Y329300
X28152Y339300
X28152Y349300
X38152Y349300
X38152Y319300
X38152Y309300
X28152Y309300
X28152Y319300
X28152Y299300
X28152Y289300
X28152Y279300
X28152Y269300
X28152Y259300
X28152Y249300
X28152Y239300
X28152Y229300
X28152Y219300
X28152Y209300
X28152Y199300
X28152Y189300
X38152Y189300
X38152Y199300
X38152Y209300
X38152Y219300
X38152Y229300
X38152Y239300
X38152Y249300
X38152Y259300
X38152Y269300
X38152Y279300
X38152Y289300
X38152Y299300
X108050Y143050
X147050Y149300
X147050Y159300
X147050Y169300
X147050Y179300
X157050Y179300
X157050Y169300
X157050Y159300
X157050Y149300
T04
X330550Y156800
X330550Y166800
X330550Y176800
X330550Y186800
X369300Y186800
X369300Y176800
X369300Y166800
X369300Y156800
X158050Y560550
X148050Y560550
X138050Y560550
X128050Y560550
T05
X135550Y523050
X145550Y523050
X155550Y523050
X283050Y239300
X283050Y229300
X283050Y219300
X220550Y184300
X210550Y184300
X200550Y184300
X210550Y124300
X220550Y124300
X230550Y124300
X288050Y124300
X298050Y124300
X308050Y124300
X413050Y485550
X413050Y495550
X413050Y505550
T06
X233050Y254300
X215550Y254300
X233050Y214300
X175550Y254300
T07
X133750Y446800
X147350Y476800
X117350Y476800
X103750Y446800
X87350Y476800
X73750Y446800
X57350Y476800
X43750Y446800
X58750Y515550
X72350Y545550
X88750Y515550
X102350Y545550
X348050Y536100
X348050Y506100
X348050Y476100
X348050Y446100
X378050Y432500
X378050Y462500
X378050Y492500
X378050Y522500
X421100Y198050
X407500Y168050
T08
X286672Y287784
X263050Y279910
X239428Y287784
X219172Y287784
X195550Y279910
X171928Y287784
X171928Y335816
X195550Y372410
X171928Y380284
X171928Y428316
X186928Y472784
X186928Y520816
X210550Y528690
X234172Y520816
X234172Y472784
X239428Y428316
X219172Y428316
X219172Y380284
X239428Y380284
X263050Y372410
X286672Y380284
X286672Y335816
X239428Y335816
X219172Y335816
X286672Y428316
T09
X324723Y352568
X324723Y336032
X346377Y336032
X346377Y352568
X377223Y352174
X377223Y335639
X377223Y319103
X377223Y302568
X377223Y286032
X377223Y269497
X377223Y252961
X377223Y236426
X398877Y236426
X398877Y252961
X398877Y269497
X398877Y286032
X398877Y302568
X398877Y319103
X398877Y335639
X398877Y352174
X346377Y268335
X346377Y251800
X346377Y235265
X324723Y235265
X324723Y251800
X324723Y268335
X95550Y577223
X95550Y598877
T10
X198936Y592548
X206810Y576800
X214684Y561052
X222558Y576800
X230432Y561052
X238306Y576800
X246180Y561052
X254054Y576800
X261928Y561052
X269802Y576800
X277676Y561052
X285550Y576800
X277676Y592548
X293424Y592548
X301298Y576800
X293424Y561052
X309172Y561052
X317046Y576800
X309172Y592548
X324920Y592548
X332794Y576800
X324920Y561052
X340668Y561052
X348542Y576800
X340668Y592548
X356416Y592548
X364290Y576800
X356416Y561052
X372164Y561052
X372164Y592548
X261928Y592548
X246180Y592548
X230432Y592548
X214684Y592548
X198936Y561052
T11
X339750Y394300
X355550Y394300
X371350Y394300
T12
X397755Y576800
X173345Y576800
T13
X33675Y118675
X33675Y604925
X418675Y118675
T14
X414300Y183050
X363050Y439300
X363050Y469300
X363050Y499300
X363050Y529300
X140550Y461800
X110550Y461800
X80550Y461800
X50550Y461800
X65550Y530550
X95550Y530550
M30
